<svg id="Clipboard_Icon" data-name="Clipboard Icon" xmlns="http://www.w3.org/2000/svg" width="16.496" height="20.255" viewBox="0 0 16.496 20.255">
  <path id="Path_1623" data-name="Path 1623" d="M16.5,20.251H0V1.5H.137Q3.071,1.5,6,1.5a.146.146,0,0,0,.165-.106,2.246,2.246,0,0,1,4.168.024c.03.078.074.081.14.081H16.5Q16.5,10.874,16.5,20.251ZM3.74,6V3.008H1.5V18.743h13.5V3.009H12.747V6ZM5.249,4.489h5.994V3h-.109C10.47,3,9.806,3,9.142,3c-.084,0-.114-.022-.116-.108-.006-.23-.014-.461-.033-.691a.748.748,0,0,0-1.5.042c-.009.217-.024.433-.029.65,0,.086-.033.107-.116.107C6.706,3,6.059,3,5.412,3H5.249C5.249,3.507,5.249,3.994,5.249,4.489Z" transform="translate(0 0.004)"/>
</svg>
