<svg xmlns="http://www.w3.org/2000/svg" width="14.816" height="20.061" viewBox="0 0 14.816 20.061">
  <path id="Document_Icon" data-name="Document Icon" d="M6954.63,9101.767a1.12,1.12,0,0,0-.331-.7c-1.871-1.9-3.44-3.467-4.941-4.936a1.264,1.264,0,0,0-.812-.325c-2.289-.019-4.616-.016-6.867-.014l-1.281,0c-.118,0-.233.01-.345.02-.049,0-.1.011-.146.011l-.082.008v20.02h14.762l.013-.071c.006-.034.013-.062.019-.087a.625.625,0,0,0,.021-.139v-1.527C6954.642,9110.012,6954.644,9105.855,6954.63,9101.767Zm-5.2-.758v-2.81l2.834,2.81Zm3.939,1.228v12.382h-12.316v-17.569h7.106v5.188Z" transform="translate(-6939.825 -9095.796)"/>
</svg>
