<svg xmlns="http://www.w3.org/2000/svg" width="16.901" height="17.218" viewBox="0 0 16.901 17.218">
  <g id="Download_Icon" data-name="Download Icon" transform="translate(0 0)">
    <path id="Path_1487" data-name="Path 1487" d="M7507.793,6558.619h1.684v.216c0,1.03,0,2.061,0,3.09a3.34,3.34,0,0,1-2.951,3.41,12.954,12.954,0,0,1-1.722.034q-4.375,0-8.754,0a3.359,3.359,0,0,1-3.437-2.9,6.384,6.384,0,0,1-.033-.928c0-.964,0-1.928,0-2.909h1.683v.231q0,1.5,0,3.01a1.709,1.709,0,0,0,1.829,1.814q4.951,0,9.9,0a1.746,1.746,0,0,0,1.335-.537,1.711,1.711,0,0,0,.465-1.228v-3.3Z" transform="translate(-7492.577 -6548.163)"/>
    <path id="Path_1488" data-name="Path 1488" d="M7568.773,6294.729h1.688v8.862l3.574-3.572,1.209,1.225-5.609,5.61-5.623-5.625,1.186-1.155,3.575,3.587Z" transform="translate(-7561.182 -6294.729)"/>
  </g>
</svg>
