<svg xmlns="http://www.w3.org/2000/svg" width="19.793" height="17.317" viewBox="0 0 19.793 17.317">
  <g id="Global_Components_Icons_contact-chat_1_" transform="translate(0 -0.33)">
    <path id="Shape_1_" d="M.931,17.647a.927.927,0,0,1-.677-1.566,9.917,9.917,0,0,0,1.793-2.829A7.073,7.073,0,0,1,0,8.37C0,3.936,4.442.33,9.9.33s9.894,3.606,9.894,8.039S15.353,16.408,9.9,16.408A11.961,11.961,0,0,1,6.3,15.856,9.36,9.36,0,0,1,.931,17.647ZM9.9,2.189c-4.433,0-8.039,2.77-8.039,6.18A5.321,5.321,0,0,0,3.4,11.98l.8.842-.409,1.087a9.715,9.715,0,0,1-.77,1.554,8.239,8.239,0,0,0,2.223-1.115l.753-.533.878.279a10.056,10.056,0,0,0,3.03.467c4.433,0,8.039-2.775,8.039-6.184S14.332,2.189,9.9,2.189Z" transform="translate(0 0)"/>
  </g>
</svg>
