<svg xmlns="http://www.w3.org/2000/svg" width="22.833" height="21.826" viewBox="0 0 22.833 21.826">
  <g id="Group_1787" data-name="Group 1787" transform="translate(1.269 1.338)">
    <path id="Path_1657" data-name="Path 1657" d="M3.908,19.412c.028-.174.055-.349.084-.523q.147-.863.294-1.725t.292-1.716q.138-.807.276-1.614c.077-.454.152-.908.233-1.361a.136.136,0,0,0-.045-.14q-.86-.834-1.717-1.67L.537,7.949.056,7.48C.04,7.465.026,7.449,0,7.422c.073-.012.134-.024.194-.033l2.135-.31,2.134-.314,1.751-.254c.256-.037.512-.076.768-.111a.116.116,0,0,0,.1-.076q.4-.807.794-1.614L9.7,1l.439-.891c.015-.031.032-.061.056-.109.022.04.038.068.053.1l1.086,2.2q.99,2,1.979,4a.163.163,0,0,0,.142.1c.512.072,1.024.148,1.536.222l1.368.2,1.517.22,1.368.2,1.086.156a.717.717,0,0,1,.071.019c-.029.031-.05.056-.073.079L19.081,8.7l-2.548,2.487q-.583.569-1.166,1.137a.129.129,0,0,0-.043.132q.222,1.263.437,2.526.25,1.455.5,2.909l.249,1.445c0,.015,0,.03.009.063-.042-.021-.072-.035-.1-.05l-4.6-2.414c-.509-.267-1.017-.532-1.525-.8a.154.154,0,0,0-.164,0Q7.06,17.756,3.992,19.371c-.022.011-.042.027-.063.04Z" transform="translate(0)" fill="none" stroke="#000" stroke-width="1.25"/>
  </g>
</svg>
