<svg id="Group_1558" data-name="Group 1558" xmlns="http://www.w3.org/2000/svg" width="66.951" height="27.806" viewBox="0 0 66.951 27.806">
  <path id="Path_1565" data-name="Path 1565" d="M52.97,34.672H93.983V12.87H52.97Zm.414-21.388H93.569V34.258H53.384Z" transform="translate(-40 -9.718)"/>
  <path id="Path_1566" data-name="Path 1566" d="M84.858,23.15H81.966A1.372,1.372,0,0,0,80.6,24.526V27.4a1.374,1.374,0,0,0,1.366,1.376h2.892A1.372,1.372,0,0,0,86.224,27.4V24.526A1.374,1.374,0,0,0,84.858,23.15Zm.952,4.251a.959.959,0,0,1-.955.962H81.966a.959.959,0,0,1-.955-.962V24.526a.959.959,0,0,1,.955-.962h2.892a.959.959,0,0,1,.955.962V27.4Z" transform="translate(-60.865 -17.481)"/>
  <path id="Path_1567" data-name="Path 1567" d="M84.858,60.22H81.966A1.372,1.372,0,0,0,80.6,61.6v2.875a1.374,1.374,0,0,0,1.366,1.376h2.892a1.372,1.372,0,0,0,1.366-1.376V61.594A1.373,1.373,0,0,0,84.858,60.22Zm.952,4.248a.959.959,0,0,1-.955.962H81.966a.959.959,0,0,1-.955-.962V61.594a.959.959,0,0,1,.955-.962h2.892a.959.959,0,0,1,.955.962v2.875Z" transform="translate(-60.865 -45.474)"/>
  <path id="Path_1568" data-name="Path 1568" d="M59.4,48.312h1.028a.519.519,0,0,0,.517-.519V46.769a.519.519,0,0,0-.517-.519H59.4a.519.519,0,0,0-.517.519v1.023A.519.519,0,0,0,59.4,48.312Zm-.309-1.54a.313.313,0,0,1,.309-.313h1.028a.31.31,0,0,1,.309.313V47.8a.313.313,0,0,1-.309.313H59.4a.31.31,0,0,1-.309-.313V46.772Z" transform="translate(-44.463 -34.925)"/>
  <path id="Path_1569" data-name="Path 1569" d="M59.4,37.092h1.028a.519.519,0,0,0,.517-.519V35.549a.519.519,0,0,0-.517-.519H59.4a.519.519,0,0,0-.517.519v1.023A.519.519,0,0,0,59.4,37.092Zm-.309-1.54a.313.313,0,0,1,.309-.313h1.028a.31.31,0,0,1,.309.313v1.023a.313.313,0,0,1-.309.313H59.4a.31.31,0,0,1-.309-.313V35.552Z" transform="translate(-44.463 -26.452)"/>
  <path id="Path_1570" data-name="Path 1570" d="M59.4,25.452h1.028a.519.519,0,0,0,.517-.519V23.909a.519.519,0,0,0-.517-.519H59.4a.519.519,0,0,0-.517.519v1.023A.519.519,0,0,0,59.4,25.452Zm-.309-1.543A.313.313,0,0,1,59.4,23.6h1.028a.31.31,0,0,1,.309.313v1.023a.313.313,0,0,1-.309.313H59.4a.31.31,0,0,1-.309-.313V23.909Z" transform="translate(-44.463 -17.662)"/>
  <path id="Path_1571" data-name="Path 1571" d="M120.458,23.15h-2.892a1.372,1.372,0,0,0-1.366,1.376V27.4a1.374,1.374,0,0,0,1.366,1.376h2.892a1.372,1.372,0,0,0,1.366-1.376V24.526A1.372,1.372,0,0,0,120.458,23.15Zm.955,4.251a.959.959,0,0,1-.955.962h-2.892a.959.959,0,0,1-.955-.962V24.526a.959.959,0,0,1,.955-.962h2.892a.959.959,0,0,1,.955.962Z" transform="translate(-87.748 -17.481)"/>
  <path id="Path_1572" data-name="Path 1572" d="M120.458,60.22h-2.892A1.372,1.372,0,0,0,116.2,61.6v2.875a1.374,1.374,0,0,0,1.366,1.376h2.892a1.372,1.372,0,0,0,1.366-1.376V61.594A1.372,1.372,0,0,0,120.458,60.22Zm.955,4.248a.959.959,0,0,1-.955.962h-2.892a.959.959,0,0,1-.955-.962V61.594a.959.959,0,0,1,.955-.962h2.892a.959.959,0,0,1,.955.962Z" transform="translate(-87.748 -45.474)"/>
  <path id="Path_1573" data-name="Path 1573" d="M156.168,23.15h-2.892a1.372,1.372,0,0,0-1.366,1.376V27.4a1.374,1.374,0,0,0,1.366,1.376h2.892a1.372,1.372,0,0,0,1.366-1.376V24.526A1.374,1.374,0,0,0,156.168,23.15Zm.952,4.251a.959.959,0,0,1-.955.962h-2.892a.959.959,0,0,1-.955-.962V24.526a.959.959,0,0,1,.955-.962h2.892a.959.959,0,0,1,.955.962Z" transform="translate(-114.714 -17.481)"/>
  <path id="Path_1574" data-name="Path 1574" d="M156.168,60.22h-2.892A1.372,1.372,0,0,0,151.91,61.6v2.875a1.374,1.374,0,0,0,1.366,1.376h2.892a1.372,1.372,0,0,0,1.366-1.376V61.594A1.373,1.373,0,0,0,156.168,60.22Zm.952,4.248a.959.959,0,0,1-.955.962h-2.892a.959.959,0,0,1-.955-.962V61.594a.959.959,0,0,1,.955-.962h2.892a.959.959,0,0,1,.955.962Z" transform="translate(-114.714 -45.474)"/>
  <path id="Path_1575" data-name="Path 1575" d="M191.868,23.15h-2.892a1.372,1.372,0,0,0-1.366,1.376V27.4a1.374,1.374,0,0,0,1.366,1.376h2.892a1.372,1.372,0,0,0,1.366-1.376V24.526A1.371,1.371,0,0,0,191.868,23.15Zm.955,4.251a.959.959,0,0,1-.955.962h-2.892a.959.959,0,0,1-.955-.962V24.526a.959.959,0,0,1,.955-.962h2.892a.959.959,0,0,1,.955.962Z" transform="translate(-141.673 -17.481)"/>
  <path id="Path_1576" data-name="Path 1576" d="M191.868,60.22h-2.892A1.372,1.372,0,0,0,187.61,61.6v2.875a1.374,1.374,0,0,0,1.366,1.376h2.892a1.372,1.372,0,0,0,1.366-1.376V61.594A1.37,1.37,0,0,0,191.868,60.22Zm.955,4.248a.959.959,0,0,1-.955.962h-2.892a.959.959,0,0,1-.955-.962V61.594a.959.959,0,0,1,.955-.962h2.892a.959.959,0,0,1,.955.962Z" transform="translate(-141.673 -45.474)"/>
  <path id="Path_1577" data-name="Path 1577" d="M34.711,96.87l-.181.526h.132l.032-.1h.191l.032.1h.132l-.181-.526Zm.017.316.061-.191.061.191Z" transform="translate(-26.075 -73.15)"/>
  <path id="Path_1578" data-name="Path 1578" d="M37.146,97.2c0,.069-.02.088-.088.088s-.088-.02-.088-.088V96.87h-.13v.348c0,.149.086.186.215.186s.215-.037.215-.186V96.87h-.13V97.2Z" transform="translate(-27.82 -73.15)"/>
  <path id="Path_1579" data-name="Path 1579" d="M39.233,96.87H39.04V97.4h.193c.144,0,.238-.049.238-.264S39.378,96.87,39.233,96.87Zm0,.409h-.066v-.291h.066c.088,0,.108.051.108.144S39.322,97.279,39.233,97.279Z" transform="translate(-29.481 -73.15)"/>
  <rect id="Rectangle_573" data-name="Rectangle 573" width="0.13" height="0.526" transform="translate(10.081 23.72)"/>
  <path id="Path_1580" data-name="Path 1580" d="M42.29,96.84c-.164,0-.23.069-.23.272s.066.272.23.272.23-.069.23-.272S42.457,96.84,42.29,96.84Zm0,.421c-.081,0-.1-.047-.1-.152s.02-.149.1-.149.1.044.1.149S42.373,97.261,42.29,97.261Z" transform="translate(-31.761 -73.128)"/>
  <path id="Path_1581" data-name="Path 1581" d="M231.475,96.87h-.235V97.4h.13v-.149h.105c.108,0,.184-.037.184-.189S231.585,96.87,231.475,96.87Zm-.02.26h-.086v-.142h.086c.056,0,.073.02.073.071S231.512,97.13,231.455,97.13Z" transform="translate(-174.62 -73.15)"/>
  <path id="Path_1582" data-name="Path 1582" d="M233.57,97.225l-.088-.355h-.105l-.088.355-.081-.355h-.127l.132.526h.137l.081-.294.078.294h.137l.132-.526h-.127Z" transform="translate(-176.009 -73.15)"/>
  <path id="Path_1583" data-name="Path 1583" d="M236.606,97.044c0-.152-.081-.174-.2-.174h-.215V97.4h.13v-.171h.064l.105.171h.147l-.127-.191C236.565,97.186,236.606,97.147,236.606,97.044Zm-.2.069h-.081v-.125h.081c.056,0,.076.012.076.064S236.459,97.112,236.4,97.112Z" transform="translate(-178.358 -73.15)"/>
  <path id="Path_1584" data-name="Path 1584" d="M35.241,63.113h-.174v-.2H34.94v.526h.127v-.206h.174v.206h.13V62.91h-.13Z" transform="translate(-26.385 -47.506)"/>
  <path id="Path_1585" data-name="Path 1585" d="M37.07,63.142c0,.2.066.272.23.272s.23-.069.23-.272-.066-.272-.23-.272S37.07,62.939,37.07,63.142Zm.331,0c0,.105-.017.152-.1.152s-.1-.047-.1-.152.02-.149.1-.149S37.4,63.036,37.4,63.142Z" transform="translate(-27.993 -47.475)"/>
  <path id="Path_1586" data-name="Path 1586" d="M39.881,63.436V62.91h-.167L39.6,63.1l-.12-.193H39.31v.526h.13v-.37l.157.24.157-.24v.37Z" transform="translate(-29.685 -47.506)"/>
  <path id="Path_1587" data-name="Path 1587" d="M42.45,63.028V62.91h-.36v.526h.35l.024-.118H42.22v-.093h.218v-.113H42.22v-.086Z" transform="translate(-31.784 -47.506)"/>
  <path id="Path_1588" data-name="Path 1588" d="M59.6,75.166h.492l.034-.174h-.335v-.6H59.6Z" transform="translate(-45.007 -56.175)"/>
  <path id="Path_1589" data-name="Path 1589" d="M61.889,75.166v-.6h.2l.032-.174H61.48v.174H61.7v.6Z" transform="translate(-46.426 -56.175)"/>
  <path id="Path_1590" data-name="Path 1590" d="M65.008,74.992h-.36v-.135h.321v-.166h-.321v-.127h.34V74.39H64.46v.776h.512Z" transform="translate(-48.677 -56.175)"/>
  <path id="Path_1591" data-name="Path 1591" d="M58.221,62.082a.447.447,0,0,0,.179-.034c-.037.091-.135.142-.38.211l.061.2c.392-.091.568-.279.568-.607,0-.267-.122-.4-.36-.4-.257,0-.38.105-.38.328A.284.284,0,0,0,58.221,62.082Zm.064-.426c.1,0,.135.049.135.186a.2.2,0,0,1,0,.037.317.317,0,0,1-.14.024.112.112,0,0,1-.125-.127C58.155,61.688,58.189,61.656,58.285,61.656Z" transform="translate(-43.73 -46.403)"/>
  <rect id="Rectangle_574" data-name="Rectangle 574" width="0.242" height="0.245" transform="translate(15.041 15.801)"/>
  <rect id="Rectangle_575" data-name="Rectangle 575" width="0.242" height="0.245" transform="translate(15.041 15.277)"/>
  <path id="Path_1592" data-name="Path 1592" d="M63.2,61.51l-.34.612v.193h.5v.176H63.6v-.561h-.238v.184h-.233l.333-.6Z" transform="translate(-47.468 -46.448)"/>
  <path id="Path_1593" data-name="Path 1593" d="M66.555,62.447v-1l-.465.078v.211l.228-.032v.739Z" transform="translate(-49.908 -46.403)"/>
  <path id="Path_1594" data-name="Path 1594" d="M35.25,30.306h.132l.032-.1h.191l.032.1h.132l-.181-.526h-.154Zm.262-.4.061.191h-.122Z" transform="translate(-26.619 -22.488)"/>
  <path id="Path_1595" data-name="Path 1595" d="M37.63,29.78v.526h.13v-.149h.105c.108,0,.184-.037.184-.189s-.076-.189-.184-.189Zm.289.189c0,.051-.017.071-.073.071H37.76V29.9h.086C37.9,29.9,37.919,29.917,37.919,29.969Z" transform="translate(-28.416 -22.488)"/>
  <path id="Path_1596" data-name="Path 1596" d="M39.875,30.157c.108,0,.184-.037.184-.189s-.076-.189-.184-.189H39.64v.526h.13v-.149Zm-.105-.26h.086c.056,0,.073.02.073.071s-.017.071-.073.071H39.77Z" transform="translate(-29.934 -22.488)"/>
  <path id="Path_1597" data-name="Path 1597" d="M41.55,29.889a.134.134,0,0,0,.1.14l.1.042c.042.017.056.027.056.054s-.022.042-.088.042a.5.5,0,0,1-.162-.029v.12a.49.49,0,0,0,.164.024c.152,0,.213-.044.213-.162,0-.078-.027-.115-.122-.152l-.069-.027c-.051-.02-.064-.029-.064-.054s.01-.034.078-.034a.515.515,0,0,1,.154.024V29.76a.522.522,0,0,0-.154-.02C41.592,29.742,41.55,29.789,41.55,29.889Z" transform="translate(-31.376 -22.457)"/>
  <rect id="Rectangle_576" data-name="Rectangle 576" width="0.198" height="0.198" transform="translate(14.706 17.292)"/>
  <rect id="Rectangle_577" data-name="Rectangle 577" width="0.198" height="0.399" transform="translate(15.095 17.089)"/>
  <rect id="Rectangle_578" data-name="Rectangle 578" width="0.198" height="0.546" transform="translate(15.639 16.942)"/>
  <rect id="Rectangle_579" data-name="Rectangle 579" width="0.198" height="0.742" transform="translate(16.053 16.749)"/>
  <path id="Path_1598" data-name="Path 1598" d="M58.929,86.79a1.35,1.35,0,1,0,1.349,1.352A1.351,1.351,0,0,0,58.929,86.79Zm0,2.307a.955.955,0,1,1,.955-.955A.956.956,0,0,1,58.929,89.1Z" transform="translate(-43.481 -65.538)"/>
  <path id="Path_1599" data-name="Path 1599" d="M63.116,4.188h0c-.7-4.2-3.5-4.2-5.967-4.189H9.8C7.338-.009,4.537-.014,3.837,4.188L0,27.8H66.951ZM4.652,4.322C5.237.814,7.353.816,9.8.826h47.35C59.6.814,61.716.814,62.3,4.322l3.68,22.659H.972Z" transform="translate(0 0.002)"/>
  <path id="Path_1600" data-name="Path 1600" d="M230.885,56.78V54.89l-.73.534H229.7v.837h.455Zm-1.031-1.2h.353l.524-.384v1.283l-.524-.372h-.35v-.526Z" transform="translate(-173.457 -41.449)"/>
  <rect id="Rectangle_580" data-name="Rectangle 580" width="0.705" height="0.154" transform="translate(57.619 14.31)"/>
  <path id="Path_1601" data-name="Path 1601" d="M230.885,23.08V21.19l-.73.534H229.7v.837h.455Zm-1.031-1.2h.353l.524-.384v1.283l-.524-.372h-.35V21.88Z" transform="translate(-173.457 -16.001)"/>
  <path id="Path_1602" data-name="Path 1602" d="M235.751,23.62H235.6v.274h-.277v.154h.277v.277h.154v-.277h.274v-.154h-.274Z" transform="translate(-177.701 -17.836)"/>
  <path id="Path_1603" data-name="Path 1603" d="M231.6,89.448a.845.845,0,0,0,.076-1.687V87.58h-.154v.181a.845.845,0,0,0,.078,1.687Zm-.076-1.533V88.6h.154v-.686a.694.694,0,1,1-.154,0Z" transform="translate(-174.25 -66.135)"/>
  <path id="Path_1604" data-name="Path 1604" d="M37.464,55.151l-.727-.681-.727.681v1.082h.544V55.6h.365v.632h.544V55.151Zm-.154.926h-.235v-.632H36.4v.632h-.235v-.859l.573-.536.573.536v.859Z" transform="translate(-27.193 -41.132)"/>
  <path id="Path_1605" data-name="Path 1605" d="M38.177,87.709c0-.377-.622-.845-.693-.9l-.122-.091v1.312a.524.524,0,0,0-.357.1.382.382,0,0,0-.147.242.249.249,0,0,0,.039.191.32.32,0,0,0,.26.122.353.353,0,0,0,.2-.064.429.429,0,0,0,.162-.431c0-.022,0-.047,0-.069V87.033c.206.174.507.47.507.676a.6.6,0,0,1-.23.465l.088.127A.751.751,0,0,0,38.177,87.709Zm-.913.791a.183.183,0,0,1-.245-.024.1.1,0,0,1-.01-.076.227.227,0,0,1,.086-.14.367.367,0,0,1,.22-.071.267.267,0,0,1,.047,0V88.2C37.369,88.343,37.369,88.427,37.263,88.5Z" transform="translate(-27.829 -65.486)"/>
  <path id="Path_1606" data-name="Path 1606" d="M36.09,22.881h.661V22.22H36.09Zm.154-.507h.35v.35h-.35Z" transform="translate(-27.253 -16.779)"/>
  <path id="Path_1607" data-name="Path 1607" d="M39.951,22.22H39.29v.661h.661Zm-.154.5h-.35v-.35h.35Z" transform="translate(-29.67 -16.779)"/>
  <path id="Path_1608" data-name="Path 1608" d="M36.751,25.46H36.09v.661h.661Zm-.157.507h-.35v-.35h.35Z" transform="translate(-27.253 -19.225)"/>
  <path id="Path_1609" data-name="Path 1609" d="M39.951,25.46H39.29v.661h.661Zm-.154.507h-.35v-.35h.35Z" transform="translate(-29.67 -19.225)"/>
  <path id="Path_1610" data-name="Path 1610" d="M26.231,7.85a3.413,3.413,0,0,0-2.517.93,3.824,3.824,0,0,0-1,2.49l.619,0a3.205,3.205,0,0,1,.823-2.049,2.814,2.814,0,0,1,2.079-.747V7.85Z" transform="translate(-17.149 -5.927)"/>
  <path id="Path_1611" data-name="Path 1611" d="M235.01,7.85v.619a2.75,2.75,0,0,1,2.9,2.8h.622a3.824,3.824,0,0,0-1-2.49A3.431,3.431,0,0,0,235.01,7.85Z" transform="translate(-177.467 -5.927)"/>
</svg>
