<svg xmlns="http://www.w3.org/2000/svg" width="18.078" height="17.305" viewBox="0 0 18.078 17.305">
  <g id="Group_2025" data-name="Group 2025" transform="translate(1.269 1.338)">
    <path id="Path_1657" data-name="Path 1657" d="M3,14.888c.022-.134.042-.268.065-.4q.112-.662.226-1.323t.224-1.316q.106-.619.211-1.238c.059-.348.117-.7.179-1.044a.1.1,0,0,0-.035-.107q-.66-.64-1.317-1.281L.412,6.1l-.369-.36L0,5.692c.056-.01.1-.019.149-.026l1.637-.238,1.637-.24,1.343-.2c.2-.029.392-.059.589-.085a.089.089,0,0,0,.074-.058q.3-.619.609-1.238L7.44.767,7.776.084C7.788.06,7.8.037,7.819,0c.017.031.03.052.041.075L8.693,1.76q.759,1.535,1.518,3.071a.125.125,0,0,0,.109.077c.393.055.785.113,1.178.17l1.049.151L13.71,5.4l1.049.151.833.12a.55.55,0,0,1,.054.014c-.022.024-.038.043-.056.06l-.956.934L12.68,8.583q-.447.436-.894.872a.1.1,0,0,0-.033.1q.17.969.335,1.937.192,1.116.383,2.231l.191,1.108c0,.012,0,.023.007.048l-.077-.039L9.063,12.99c-.39-.2-.78-.408-1.169-.615a.118.118,0,0,0-.126,0q-2.353,1.242-4.707,2.481c-.017.009-.032.02-.049.03Z" transform="translate(0)" fill="none" stroke="#000" stroke-width="1.25"/>
  </g>
</svg>
