<svg id="Group_1559" data-name="Group 1559" xmlns="http://www.w3.org/2000/svg" width="37.187" height="37.187" viewBox="0 0 37.187 37.187">
  <path id="Path_1612" data-name="Path 1612" d="M18.594,0A18.594,18.594,0,1,0,37.187,18.594,18.613,18.613,0,0,0,18.594,0Zm0,36.184A17.592,17.592,0,1,1,36.184,18.59,17.61,17.61,0,0,1,18.594,36.184Z"/>
  <path id="Path_1613" data-name="Path 1613" d="M23.463,7.99A15.473,15.473,0,1,0,38.935,23.463,15.491,15.491,0,0,0,23.463,7.99Zm0,30.531A15.059,15.059,0,1,1,38.521,23.463,15.074,15.074,0,0,1,23.463,38.521Z" transform="translate(-4.869 -4.869)"/>
  <path id="Path_1614" data-name="Path 1614" d="M24.7,10.03a14.678,14.678,0,1,0,14.68,14.676A14.7,14.7,0,0,0,24.7,10.03Zm0,28.941A14.266,14.266,0,1,1,38.965,24.706,14.28,14.28,0,0,1,24.7,38.971Z" transform="translate(-6.106 -6.112)"/>
  <path id="Path_1615" data-name="Path 1615" d="M33.371,24.24a9.123,9.123,0,1,0,9.121,9.125A9.132,9.132,0,0,0,33.371,24.24Zm0,17.246a8.121,8.121,0,1,1,8.121-8.121A8.132,8.132,0,0,1,33.371,41.486Z" transform="translate(-14.777 -14.771)"/>
  <path id="Path_1616" data-name="Path 1616" d="M17.991,16a.531.531,0,1,0-.531-.531A.532.532,0,0,0,17.991,16Zm0-.855a.324.324,0,1,1-.324.324A.323.323,0,0,1,17.991,15.147Z" transform="translate(-10.64 -9.104)"/>
  <path id="Path_1617" data-name="Path 1617" d="M75.631,16a.531.531,0,1,0-.531-.531A.532.532,0,0,0,75.631,16Zm0-.855a.324.324,0,1,1-.324.324A.323.323,0,0,1,75.631,15.147Z" transform="translate(-45.764 -9.104)"/>
  <path id="Path_1618" data-name="Path 1618" d="M17.991,77.5a.531.531,0,1,0,.531.531A.532.532,0,0,0,17.991,77.5Zm0,.855a.324.324,0,1,1,.324-.324A.323.323,0,0,1,17.991,78.355Z" transform="translate(-10.64 -47.227)"/>
  <path id="Path_1619" data-name="Path 1619" d="M75.631,77.5a.531.531,0,1,0,.531.531A.532.532,0,0,0,75.631,77.5Zm0,.855a.324.324,0,1,1,.324-.324A.323.323,0,0,1,75.631,78.355Z" transform="translate(-45.764 -47.227)"/>
  <path id="Path_1620" data-name="Path 1620" d="M32.77,39.9l4.625,4.629V41.454l-2.621.035,2.109-1.3-1.02-.457v.7l-1.09.656v-2.9l4.219,1.793-1.395.8h.973v4.914L44.36,39.9l-5.8-5.793Z" transform="translate(-19.969 -20.786)"/>
</svg>
