<svg xmlns="http://www.w3.org/2000/svg" width="22.337" height="22.338" viewBox="0 0 22.337 22.338">
  <g id="Group_1783" data-name="Group 1783" transform="translate(-0.003 -0.003)">
    <g id="Group_1782" data-name="Group 1782" transform="translate(0.003 0.003)">
      <path id="Path_1652" data-name="Path 1652" d="M22.191,5.228,17.114.151a.507.507,0,0,0-.718,0L.151,16.4a.507.507,0,0,0,0,.718l5.077,5.077a.507.507,0,0,0,.718,0L22.191,5.946A.508.508,0,0,0,22.191,5.228ZM19.8,6.9,18.129,5.228a.507.507,0,1,0-.718.718l1.672,1.671L17.771,8.93,16.607,7.766a.508.508,0,1,0-.718.718l1.164,1.164L15.741,10.96,14.577,9.8a.507.507,0,0,0-.718.718l1.164,1.164-1.314,1.314L12.037,11.32a.507.507,0,0,0-.718.718l1.672,1.672-1.313,1.313-1.164-1.164a.507.507,0,0,0-.718.718l1.164,1.164L9.649,17.052,8.485,15.888a.507.507,0,0,0-.718.718L8.931,17.77,7.617,19.084,5.946,17.412a.507.507,0,1,0-.718.718L6.9,19.8,5.587,21.114,1.228,16.755,16.755,1.228l4.359,4.359Z" transform="translate(-0.003 -0.003)" fill="#010101"/>
    </g>
  </g>
</svg>
