<svg id="Group_1786" data-name="Group 1786" xmlns="http://www.w3.org/2000/svg" width="27.879" height="13.939" viewBox="0 0 27.879 13.939">
  <g id="Group_1785" data-name="Group 1785" transform="translate(0 0)">
    <g id="Group_1784" data-name="Group 1784">
      <path id="Path_1653" data-name="Path 1653" d="M225.742,42.67a1.742,1.742,0,1,0,1.742,1.742A1.744,1.744,0,0,0,225.742,42.67Zm0,2.323a.581.581,0,1,1,.581-.581A.582.582,0,0,1,225.742,44.993Z" transform="translate(-211.803 -40.347)" fill="#fff"/>
      <path id="Path_1654" data-name="Path 1654" d="M21.574,1.166C19.392.1,16.5,0,13.939,0,11.17,0,8.332.148,6.253,1.169a6.386,6.386,0,1,0,6.483,7.09,6.429,6.429,0,0,1,2.406,0,6.388,6.388,0,1,0,6.432-7.089ZM6.389,12.778a5.227,5.227,0,1,1,5.227-5.227A5.233,5.233,0,0,1,6.389,12.778Zm8.737-5.705a7.547,7.547,0,0,0-2.371,0A6.393,6.393,0,0,0,8.648,1.582a25.493,25.493,0,0,1,5.291-.42,25.073,25.073,0,0,1,5.276.426A6.393,6.393,0,0,0,15.125,7.073Zm6.365,5.705a5.227,5.227,0,1,1,5.227-5.227A5.233,5.233,0,0,1,21.49,12.778Z" transform="translate(0 0)" fill="#fff"/>
      <path id="Path_1655" data-name="Path 1655" d="M46.726,64a4.066,4.066,0,1,0,4.066,4.066A4.071,4.071,0,0,0,46.726,64Zm0,6.97a2.9,2.9,0,1,1,2.9-2.9A2.907,2.907,0,0,1,46.726,70.97Z" transform="translate(-40.337 -60.515)" fill="#fff"/>
      <path id="Path_1656" data-name="Path 1656" d="M324.066,64a4.066,4.066,0,1,0,4.066,4.066A4.071,4.071,0,0,0,324.066,64Zm0,6.97a2.9,2.9,0,1,1,2.9-2.9A2.907,2.907,0,0,1,324.066,70.97Z" transform="translate(-302.576 -60.515)" fill="#fff"/>
    </g>
  </g>
</svg>
