<svg id="Group_1557" data-name="Group 1557" xmlns="http://www.w3.org/2000/svg" width="19.159" height="42.6" viewBox="0 0 19.159 42.6">
  <path id="Path_1520" data-name="Path 1520" d="M30.774,11.255H17.72V.845A.846.846,0,0,1,18.565,0H29.929a.846.846,0,0,1,.845.845V11.255Zm-12.541-.513H30.261V.845a.332.332,0,0,0-.332-.332H18.565a.332.332,0,0,0-.332.332Z" transform="translate(-14.69)"/>
  <path id="Path_1521" data-name="Path 1521" d="M33.993,31.4H31.16V29.35h2.831V31.4ZM31.5,31.056h2.147V29.692H31.5Z" transform="translate(-25.832 -24.332)"/>
  <path id="Path_1522" data-name="Path 1522" d="M66.891,31.4H64.06V29.35h2.831ZM64.4,31.056h2.147V29.692H64.4Z" transform="translate(-53.107 -24.332)"/>
  <path id="Path_1523" data-name="Path 1523" d="M17.371,81.287H1.788A1.79,1.79,0,0,1,0,79.5V63.769A1.95,1.95,0,0,1,1.949,61.82H17.21a1.95,1.95,0,0,1,1.949,1.949V79.5A1.79,1.79,0,0,1,17.371,81.287ZM1.949,62.677A1.1,1.1,0,0,0,.855,63.771V79.5a.935.935,0,0,0,.934.934H17.373a.935.935,0,0,0,.934-.934V63.771a1.1,1.1,0,0,0-1.094-1.094Z" transform="translate(0 -51.25)"/>
  <path id="Path_1524" data-name="Path 1524" d="M38.386,175.508h5.562a.286.286,0,0,0,.286-.286V173.41H38.1v1.812A.285.285,0,0,0,38.386,175.508Z" transform="translate(-31.586 -143.761)"/>
  <path id="Path_1525" data-name="Path 1525" d="M52.6,11.942H52.43V10.458h.629V3.99H52.43V2.42h.629V1.23h.171V2.591H52.6V3.819h.629v6.81H52.6Z" transform="translate(-43.466 -1.02)"/>
  <path id="Path_1526" data-name="Path 1526" d="M47.689,191.808H43.25V179.98h4.439Zm-3.666-.775h2.893V180.753H44.023Z" transform="translate(-35.855 -149.208)"/>
</svg>
