<svg id="Group_1556" data-name="Group 1556" xmlns="http://www.w3.org/2000/svg" width="40.737" height="40.433" viewBox="0 0 40.737 40.433">
  <path id="Path_1503" data-name="Path 1503" d="M20.369,0A20.217,20.217,0,1,0,40.737,20.217,20.316,20.316,0,0,0,20.369,0Zm0,39.978A19.761,19.761,0,1,1,40.277,20.217,19.857,19.857,0,0,1,20.369,39.978Z"/>
  <path id="Path_1504" data-name="Path 1504" d="M25.7,7.28a17.038,17.038,0,0,1,13.233,6.267,8.6,8.6,0,0,0,.855,2.352A10.021,10.021,0,0,0,41.2,17.553a2.778,2.778,0,0,1,.868,2.478,1.833,1.833,0,0,1-2.231.881A39.334,39.334,0,0,0,33.569,19.3a10.509,10.509,0,0,0-1.628-.768,35.655,35.655,0,0,0-6-.6h.169a35.475,35.475,0,0,0-5.994.6,10.706,10.706,0,0,0-1.628.768,39.9,39.9,0,0,0-6.28,1.615,1.833,1.833,0,0,1-2.231-.881,2.79,2.79,0,0,1,.868-2.478A10.021,10.021,0,0,0,12.263,15.9a8.492,8.492,0,0,0,.855-2.352A17.038,17.038,0,0,1,26.351,7.28H25.7Z" transform="translate(-5.6 -4.12)" fill="none" stroke="#000" stroke-miterlimit="10" stroke-width="1.027"/>
  <path id="Path_1505" data-name="Path 1505" d="M46.65,52.073c1.97,0,3.5-.273,4.223-.994s5.126-5.668,5.746-7.17c0-.977-.794-7.061-2.153-8.919" transform="translate(-26.403 -19.804)" fill="none" stroke="#000" stroke-miterlimit="10" stroke-width="1.027"/>
  <path id="Path_1506" data-name="Path 1506" d="M34.4,52.067c-1.97,0-3.5-.273-4.223-.994S25.051,45.4,24.43,43.9c0-.977.794-7.061,2.153-8.919" transform="translate(-13.827 -19.798)" fill="none" stroke="#000" stroke-miterlimit="10" stroke-width="1.027"/>
  <path id="Path_1507" data-name="Path 1507" d="M17.9,55.53a18.637,18.637,0,0,0-4.622.477,2.719,2.719,0,0,0-.273,2.352,7.418,7.418,0,0,0,1.528,2.8,21.43,21.43,0,0,0,3.229,3.2c1.428,1,2.9,1.927,3.854,1.2s.725-1.953.477-2.878-.7-2.5-.7-2.5" transform="translate(-7.3 -31.429)" fill="none" stroke="#000" stroke-miterlimit="10" stroke-width="1.027"/>
  <path id="Path_1508" data-name="Path 1508" d="M64,55.53a18.637,18.637,0,0,1,4.622.477A2.719,2.719,0,0,1,68.9,58.36a7.418,7.418,0,0,1-1.528,2.8,21.43,21.43,0,0,1-3.229,3.2c-1.428,1-2.9,1.927-3.854,1.2s-.725-1.953-.477-2.878.7-2.5.7-2.5" transform="translate(-33.729 -31.429)" fill="none" stroke="#000" stroke-miterlimit="10" stroke-width="1.027"/>
  <path id="Path_1509" data-name="Path 1509" d="M39.83,73.35s.66,2.326,1.011,3.129.625,1.2,2.07,1.2" transform="translate(-22.543 -41.515)" fill="none" stroke="#000" stroke-miterlimit="10" stroke-width="1.027"/>
  <path id="Path_1510" data-name="Path 1510" d="M50,73.35s-.66,2.326-1.011,3.129-.625,1.2-2.07,1.2" transform="translate(-26.556 -41.515)" fill="none" stroke="#000" stroke-miterlimit="10" stroke-width="1.283"/>
  <path id="Path_1511" data-name="Path 1511" d="M35.668,37.19a12.508,12.508,0,0,1,2.569,1.228,8.036,8.036,0,0,1,3.355,5.438,9.591,9.591,0,0,1-.642,3.98l-.165.425a18.373,18.373,0,0,1-33.8-.226,9.574,9.574,0,0,1-.642-3.98A8.056,8.056,0,0,1,9.7,38.618c1.532-.924,2.569-1.415,2.569-1.415" transform="translate(-3.564 -21.049)" fill="none" stroke="#000" stroke-miterlimit="10" stroke-width="1.027"/>
  <line id="Line_399" data-name="Line 399" x2="2.183" y2="2.105" transform="translate(6.233 6.315)" fill="none" stroke="#000" stroke-miterlimit="10" stroke-width="1.142"/>
  <g id="Group_1556-2" data-name="Group 1556" transform="translate(17.942 17.04)">
    <path id="Path_1512" data-name="Path 1512" d="M43.823,46.03H42.165l-.825,1.445H43l.82-1.445Z" transform="translate(-41.34 -43.092)" fill-rule="evenodd"/>
    <path id="Path_1513" data-name="Path 1513" d="M46.832,40.718,46,39.26l-.833,1.458L46,42.177l.829-1.458Z" transform="translate(-43.508 -39.26)" fill-rule="evenodd"/>
    <path id="Path_1514" data-name="Path 1514" d="M47.936,47.475H49.6l-.82-1.445H47.12l.816,1.445Z" transform="translate(-44.611 -43.092)" fill-rule="evenodd"/>
  </g>
  <line id="Line_400" data-name="Line 400" x1="2.179" y2="1.996" transform="translate(32.682 6.684)" fill="none" stroke="#000" stroke-miterlimit="10" stroke-width="1.142"/>
  <path id="Path_1515" data-name="Path 1515" d="M15.817,50.4l-5.286-.061a.16.16,0,0,1-.156-.2l.178-.872a.254.254,0,0,1,.234-.2l5.247.061a.16.16,0,0,1,.156.2l-.139.872A.254.254,0,0,1,15.817,50.4Z" transform="translate(-5.87 -27.767)" fill="none" stroke="#000" stroke-miterlimit="10" stroke-width="0.3" fill-rule="evenodd"/>
  <path id="Path_1516" data-name="Path 1516" d="M70.91,50.643l5.273-.091a.156.156,0,0,0,.152-.2l-.182-.872a.248.248,0,0,0-.234-.2l-5.234.091a.156.156,0,0,0-.152.2l.143.872A.24.24,0,0,0,70.91,50.643Z" transform="translate(-39.917 -27.891)" fill="none" stroke="#000" stroke-miterlimit="10" stroke-width="0.3" fill-rule="evenodd"/>
  <path id="Path_1517" data-name="Path 1517" d="M70.212,46.892l5.087-.048a.156.156,0,0,0,.152-.2l-.43-.885a.249.249,0,0,0-.234-.2l-4.822.069a.156.156,0,0,0-.152.2l.165.864A.249.249,0,0,0,70.212,46.892Z" transform="translate(-39.51 -25.786)" fill="none" stroke="#000" stroke-miterlimit="10" stroke-width="0.3" fill-rule="evenodd"/>
  <path id="Path_1518" data-name="Path 1518" d="M69.165,42.4a.249.249,0,0,1-.234-.2l-.386-1.437a.161.161,0,0,1,.152-.2l3.693.174a.923.923,0,0,1,.677.282c.13.13.733.833.733.833a1.974,1.974,0,0,1,.161.234c.056.1-.013.252-.265.252Z" transform="translate(-38.793 -22.956)" fill="none" stroke="#000" stroke-miterlimit="10" stroke-width="0.3" fill-rule="evenodd"/>
  <path id="Path_1519" data-name="Path 1519" d="M13,46.276H11.565a.161.161,0,0,1-.161-.2L11.8,45a.259.259,0,0,1,.243-.2h.33a.179.179,0,0,1,.161.2,1.955,1.955,0,0,0,.681.911s.052.043.035.169A.224.224,0,0,1,13,46.276Z" transform="translate(-6.453 -25.356)" fill="none" stroke="#000" stroke-miterlimit="10" stroke-width="0.3" fill-rule="evenodd"/>
  <ellipse id="Ellipse_46" data-name="Ellipse 46" cx="1.645" cy="1.575" rx="1.645" ry="1.575" transform="translate(6.818 17.465)" fill="none" stroke="#000" stroke-miterlimit="10" stroke-width="0.3"/>
</svg>
