<svg xmlns="http://www.w3.org/2000/svg" width="10.65" height="21.395" viewBox="0 0 10.65 21.395">
  <g id="Group_1584" data-name="Group 1584" transform="translate(-0.002 0.005)">
    <path id="Path_1625" data-name="Path 1625" d="M10.648,10.7q0,4.355,0,8.711a1.7,1.7,0,0,1-.982,1.732,2.7,2.7,0,0,1-1.045.235q-3.287.031-6.574.006A1.859,1.859,0,0,1,.191,20.324a2.222,2.222,0,0,1-.18-.885Q0,10.679.006,1.919A1.769,1.769,0,0,1,1.881.024C4.17-.018,6.461-.008,8.751.018a1.808,1.808,0,0,1,1.9,1.894c-.014,2.928,0,5.856,0,8.785ZM9.682,2.428H.958v.306q0,7.484-.006,14.968c0,.219.057.277.275.277q4.089-.011,8.179,0h.276C9.682,12.78,9.682,7.62,9.682,2.428Zm-4.355,16.2a.98.98,0,0,0-.968,1,.993.993,0,0,0,.989.959.98.98,0,0,0-.021-1.96ZM5.343.963v0c-.4,0-.805.006-1.208,0-.192,0-.267.078-.268.262s.1.232.267.231q1.2-.008,2.391,0c.172,0,.262-.042.262-.231S6.722.955,6.525.96C6.132.97,5.737.963,5.343.963Z" transform="translate(0 0)"/>
  </g>
</svg>
