<svg xmlns="http://www.w3.org/2000/svg" width="158" height="38" viewBox="0 0 158 38">
  <g id="Group_2045" data-name="Group 2045" transform="translate(-1337 -167.198)">
    <rect id="Rectangle_707" data-name="Rectangle 707" width="158" height="38" rx="19" transform="translate(1337 167.198)" fill="#ed0000"/>
    <path id="Express_Checkout" data-name="Express Checkout" d="M-133.787-33.879v4.5h-3.833v-4.5h-2.828v11.585h2.828v-4.5h3.833v4.5h2.828V-33.879Zm8.688,11.755c2.726,0,4.5-.988,4.5-4.685,0-3.629-1.772-4.685-4.5-4.685s-4.5,1.056-4.5,4.685C-129.6-23.111-127.824-22.123-125.1-22.123Zm0-2.453c-1.056,0-1.67-.341-1.67-2.232,0-1.857.613-2.232,1.67-2.232s1.67.375,1.67,2.232C-123.429-24.917-124.042-24.577-125.1-24.577Zm6.985,2.283h3.22l1.482-5.486,1.465,5.486h3.22l2.249-9.029h-2.709l-1.295,6.133-1.482-6.133h-2.9l-1.482,6.133-1.312-6.133h-2.709Zm15.571-9.881h2.93V-34.56h-2.93Zm.068,9.881h2.794v-9.029h-2.794Zm8.007.17a7.153,7.153,0,0,0,2.385-.307v-2.419a6.407,6.407,0,0,1-1.618.239c-.767,0-1.073-.17-1.073-.8v-3.527H-92.1v-2.385h-2.675v-2.726l-2.76.8v1.925H-99.05v2.385h1.516v4.14C-97.534-22.907-96.273-22.123-94.467-22.123Zm8.382-.17h3.015l1.738-6.44,1.738,6.44h3.015l2.9-11.585h-2.794l-1.755,7.8-1.959-7.8h-2.283l-1.959,7.8-1.755-7.8h-2.794Zm16.985.17c2.726,0,4.5-.988,4.5-4.685,0-3.629-1.772-4.685-4.5-4.685s-4.5,1.056-4.5,4.685C-73.6-23.111-71.826-22.123-69.1-22.123Zm0-2.453c-1.056,0-1.67-.341-1.67-2.232,0-1.857.613-2.232,1.67-2.232s1.67.375,1.67,2.232C-67.431-24.917-68.044-24.577-69.1-24.577Zm5.69,2.283h2.794v-6.014a9.59,9.59,0,0,1,3.1-.579v-2.607a4.54,4.54,0,0,0-3.22,1.346v-1.176H-63.41Zm15.639,0-3.169-4.617,2.964-4.412h-3.288l-2.607,4.344V-34.56h-2.794v12.266h2.794v-4.412l2.794,4.412Zm3.7.17c2.828,0,4-.63,4-2.828,0-1.7-.784-2.317-2.385-2.76l-1.635-.46c-.562-.153-.733-.273-.733-.579s.187-.426,1.261-.426a10.292,10.292,0,0,1,2.964.494v-2.47a13.225,13.225,0,0,0-3-.341c-2.675,0-3.935.6-3.935,2.624,0,1.7.681,2.351,2.266,2.794l1.772.494c.613.17.784.307.784.63,0,.358-.239.477-1.261.477a11.794,11.794,0,0,1-3.373-.6v2.521A12.92,12.92,0,0,0-44.074-22.123Z" transform="translate(1518.174 213.708)" fill="#fff"/>
    <path id="Path_1863" data-name="Path 1863" d="M13588.408,5864a10.408,10.408,0,1,0,10.41,10.408A10.409,10.409,0,0,0,13588.408,5864Zm3.6,10.96-5.2,3.253a.65.65,0,0,1-1-.552v-6.505a.65.65,0,0,1,1-.551l5.2,3.252a.652.652,0,0,1,0,1.1Z" transform="translate(-12230.979 -5688.873)" fill="#fff"/>
  </g>
</svg>
